<svg width="67" height="58" viewBox="0 0 67 58" fill="none" xmlns="http://www.w3.org/2000/svg">
<path d="M6.47227 43.0055C5.72547 44.3746 5.2276 45.8682 5.10314 47.4863L4.72974 49.8512L7.21907 50.2246C8.5882 50.349 9.95734 50.349 11.202 50.2246C15.0605 49.6022 18.4211 47.6108 20.6615 44.4991L14.3137 36.1598C10.9531 37.28 8.09034 39.7694 6.47227 43.0055Z" fill="#CFFFF6"/>
<path d="M19.7902 17.4899C10.9531 17.9878 3.3606 23.5888 0 31.5547C2.9872 29.4387 6.59674 28.443 10.2063 28.5675C12.8201 24.709 16.0562 20.975 19.7902 17.4899Z" fill="#8AFFE8"/>
<path d="M61.611 20.1038C64.5982 14.6273 66.3408 8.90184 66.8386 3.67424C66.9631 2.18064 65.9674 0.811501 64.4738 0.562568C59.2462 -0.433166 53.3962 -0.059766 47.2974 1.30937L61.611 20.1038Z" fill="#8AFFE8"/>
<path d="M25.2668 48.4822C24.271 52.0917 22.2796 55.2034 19.2924 57.4438C28.254 56.697 35.9709 50.7226 38.8336 42.0099C34.4773 44.7482 29.872 46.8641 25.2668 48.4822Z" fill="#8AFFE8"/>
<path d="M47.6708 1.18481C40.3273 3.30075 32.6104 7.15922 25.5157 12.5113C19.4169 17.1166 14.0648 22.7176 10.0819 28.5675V28.5675C9.83293 28.9409 9.70847 29.3143 9.45953 29.6877C8.0904 32.0526 8.21487 35.0398 9.9574 37.2802L16.8031 46.3663C18.5456 48.6067 21.4083 49.6024 24.0221 48.8556C24.3955 48.7311 24.7689 48.6067 25.1423 48.6067V48.6067C31.8636 46.3663 38.7092 42.6322 44.8081 38.027C51.9027 32.6749 57.6282 26.3271 61.7356 19.7304L47.6708 1.18481Z" fill="#00EBBE"/>
</svg>
