<svg width="52" height="61" viewBox="0 0 52 61" fill="none" xmlns="http://www.w3.org/2000/svg">
<path fill-rule="evenodd" clip-rule="evenodd" d="M51.5781 41.9725V31.7027V21.433C51.6897 18.3074 50.2386 16.0748 47.6711 14.6237C44.713 12.9492 41.7269 11.2469 38.7409 9.54457C35.7548 7.84225 32.7688 6.13993 29.8106 4.46552C27.2432 2.90273 24.5641 2.90273 21.8851 4.35389L3.80135 14.7353C1.23391 16.1864 0.00600056 18.3074 0.00600056 21.3213C0.117628 28.1306 0.117628 35.0516 0.00600056 41.8609C-0.105627 44.9864 1.34554 47.219 3.91298 48.6702C6.87122 50.3446 9.85737 52.047 12.8435 53.7494C15.8295 55.4517 18.8154 57.1539 21.7734 58.8283C24.3409 60.3911 27.02 60.3911 29.699 58.9399L47.7827 48.5585C50.3502 47.1074 51.6897 44.9864 51.5781 41.9725ZM25.792 21.433C31.2618 21.433 36.0618 26.233 36.0618 31.7028C36.0618 37.2842 31.4851 41.9725 25.9037 41.8609C20.3223 41.8609 15.6339 37.2842 15.6339 31.7028C15.6339 26.233 20.3223 21.433 25.792 21.433Z" fill="#00EBBE"/>
<circle cx="40.3037" cy="9.26515" r="9.26511" fill="#8AFFE8"/>
</svg>
