<svg width="66" height="58" viewBox="0 0 66 58" fill="none" xmlns="http://www.w3.org/2000/svg">
<path d="M2.12936 19.4198L31.5831 34.1466C31.8942 34.354 32.3091 34.4577 32.7239 34.4577C33.1387 34.4577 33.4499 34.354 33.8647 34.1466L63.3184 19.4198C64.1481 19.0049 64.6667 18.1752 64.6667 17.2418C64.6667 16.3084 64.1481 15.4788 63.3184 15.0639L33.8647 0.233348C33.1387 -0.0777827 32.3091 -0.0777827 31.6868 0.233348L2.12936 15.0639C1.29968 15.4788 0.781128 16.3084 0.781128 17.2418C0.781128 18.1752 1.29968 19.0049 2.12936 19.4198Z" fill="#00EBBE"/>
<path d="M1.81772 31.554L31.2714 46.2809C31.6863 46.4883 32.2048 46.592 32.7234 46.592C33.2419 46.592 33.7605 46.4883 34.1753 46.2809L63.6291 31.554C64.355 31.1392 64.9773 30.5169 65.2884 29.6872C65.5996 28.8575 65.4958 28.0278 65.081 27.1982C64.2513 25.6425 62.2808 24.9165 60.7252 25.7462L32.7234 39.7471L4.72161 25.7462C3.16596 24.9165 1.19546 25.6425 0.365778 27.1982C-0.463905 28.7538 0.158357 30.7243 1.81772 31.554Z" fill="#8AFFE8"/>
<path d="M65.0809 38.6061C64.2512 37.0504 62.2807 36.3245 60.7251 37.1541L32.7233 51.155L4.7215 37.1541C3.16584 36.3245 1.19535 37.0504 0.365667 38.6061C-0.464016 40.1617 0.261956 42.1322 1.81761 42.9619L31.2713 57.6888C31.6862 57.8962 32.2047 57.9999 32.7233 57.9999C33.2418 57.9999 33.7604 57.8962 34.1752 57.6888L63.6289 42.9619C64.3549 42.5471 64.9772 41.9248 65.2883 41.0951C65.5994 40.2655 65.4957 39.4358 65.0809 38.6061Z" fill="#CFFFF6"/>
</svg>
