<svg width="79" height="45" viewBox="0 0 79 45" fill="none" xmlns="http://www.w3.org/2000/svg">
<path fill-rule="evenodd" clip-rule="evenodd" d="M0 11.6197C0 5.20231 5.2023 0 11.6197 0H59.005C63.1054 0 66.9022 2.16118 68.9959 5.68683L78.9789 22.4982L69.0269 39.3016C66.9349 42.8338 63.1344 45 59.0292 45H11.6197C5.20231 45 0 39.7977 0 33.3803V11.6197ZM67.7737 24.2778C68.9185 21.1324 67.3478 17.7639 64.2024 16.6191C61.057 15.4743 57.6885 17.045 56.5437 20.1904C55.3989 23.3357 56.9696 26.7043 60.115 27.8491C63.2604 28.9939 66.6289 27.4231 67.7737 24.2778Z" fill="#00EBBE"/>
<path d="M44.6022 9.55339C45.6454 9.60209 46.5502 10.5955 46.5013 11.6386C46.4524 12.6816 45.4586 13.5861 44.4155 13.537H20.5111C19.4587 13.5518 18.4908 12.5975 18.4908 11.5452C18.4908 10.4928 19.4587 9.53859 20.5111 9.55339C28.5363 9.55339 36.5907 9.55339 44.6022 9.55339V9.55339Z" fill="#8AFFE8"/>
<path d="M44.6022 20.5081C45.6473 20.5539 46.5556 21.5487 46.5067 22.5935C46.4577 23.6383 45.4603 24.5436 44.4155 24.4916H11.5469C10.4943 24.5066 9.52597 23.5525 9.52597 22.4998C9.52597 21.4473 10.4943 20.4929 11.5469 20.5081C22.5607 20.5081 33.6019 20.5081 44.6022 20.5081Z" fill="#8AFFE8"/>
<path d="M44.6022 31.4633C45.6473 31.5091 46.5556 32.5039 46.5067 33.5487C46.4577 34.5936 45.4603 35.4989 44.4155 35.4469H31.4984C30.4458 35.4618 29.4774 34.5078 29.4774 33.4551C29.4774 32.4025 30.4458 31.4482 31.4984 31.4633C35.8598 31.4633 40.255 31.4633 44.6022 31.4633V31.4633Z" fill="#CFFFF6"/>
</svg>
