<svg width="50" height="68" viewBox="0 0 50 68" fill="none" xmlns="http://www.w3.org/2000/svg">
<path d="M14.2822 24.7281C14.2822 28.6585 11.3661 31.5747 7.56242 31.7014C3.75875 31.7014 0.589026 28.7853 0.589026 24.9816C0.462237 20.9244 3.50517 17.7547 7.56242 17.7547C11.3661 17.8815 14.2822 20.9244 14.2822 24.7281Z" fill="#00EBBE"/>
<path d="M7.56257 35.5049C11.3662 35.6317 14.2824 38.5479 14.2824 42.4783C14.2824 46.5356 10.9859 49.5785 6.92862 49.3249C3.12495 49.0713 0.208808 46.0284 0.462385 42.098C0.715963 38.2943 3.7589 35.3781 7.56257 35.5049Z" fill="#8AFFE8"/>
<path d="M49.4624 42.3515C49.4624 46.1552 46.5463 49.1981 42.6158 49.3249C38.5586 49.4517 35.3888 46.1552 35.5156 42.2247C35.6424 38.421 38.6854 35.3781 42.6158 35.5049C46.4195 35.5049 49.4624 38.5478 49.4624 42.3515Z" fill="#8AFFE8"/>
<path d="M49.4625 6.97769C49.5893 10.7814 46.5463 13.9511 42.7427 14.0779C38.939 14.2047 35.7693 11.2885 35.5157 7.48485C35.2621 3.55439 38.4318 0.257882 42.4891 0.257882C46.4195 0.131093 49.3357 3.17403 49.4625 6.97769Z" fill="#00FFCE"/>
<path d="M13.8348 7.23112C13.708 11.1616 10.7918 14.0777 6.86136 13.9509C2.80412 13.9509 -0.238816 10.7812 0.014762 6.59718C0.26834 2.66672 3.31127 -0.122636 7.11494 0.00415284C11.1722 0.38452 13.9615 3.42745 13.8348 7.23112Z" fill="#8AFFE8"/>
<path d="M42.81 17.8816C46.7404 17.8816 49.7834 20.7978 49.9102 24.6014C50.0369 28.4051 47.1208 31.5748 43.3171 31.7016C39.2599 31.8284 35.9634 28.6587 35.9634 24.7282C35.9634 20.9246 39.0063 17.8816 42.81 17.8816Z" fill="#00EBBE"/>
<path d="M31.5852 6.97778C31.712 10.9082 28.7958 13.9512 24.8654 14.078C20.9349 14.2047 17.892 11.2886 17.7652 7.35814C17.6384 3.42769 20.5546 0.384753 24.485 0.257964C28.4155 0.00438625 31.4584 3.04732 31.5852 6.97778Z" fill="#00FFCE"/>
<path d="M32.0328 24.728C32.0328 28.6585 29.1167 31.7014 25.313 31.7014C21.3825 31.7014 18.3396 28.7853 18.3396 24.8548C18.3396 20.9244 21.2557 17.8814 25.1862 17.8814C28.9899 17.7546 32.0328 20.7976 32.0328 24.728Z" fill="#00EBBE"/>
<path d="M32.0328 42.7319C31.906 46.6624 28.8631 49.5785 24.9326 49.4517C21.0022 49.3249 18.2128 46.1552 18.3396 42.2247C18.4664 38.2943 21.5093 35.3781 25.4398 35.5049C29.3702 35.6317 32.1596 38.6746 32.0328 42.7319Z" fill="#00FFCE"/>
<path d="M32.0329 60.2289C32.0329 64.1594 28.9899 67.0755 25.0595 67.0755C21.129 67.0755 18.2129 63.9058 18.3397 59.9754C18.3397 56.0449 21.3826 53.1288 25.3131 53.1288C29.2435 53.2555 32.0329 56.1717 32.0329 60.2289Z" fill="#CFFFF6"/>
</svg>
